<mxfile host="65bd71144e">
    <diagram id="ygHltxDAo9eAGh4uMQ9m" name="Page-1">
        <mxGraphModel dx="1133" dy="807" grid="1" gridSize="10" guides="1" tooltips="1" connect="1" arrows="1" fold="1" page="1" pageScale="1" pageWidth="850" pageHeight="1100" math="0" shadow="0">
            <root>
                <mxCell id="0"/>
                <mxCell id="1" parent="0"/>
                <mxCell id="2" value="问卷观看端" style="swimlane;childLayout=stackLayout;resizeParent=1;resizeParentMax=0;startSize=20;" vertex="1" parent="1">
                    <mxGeometry x="240" y="170" width="1135" height="1110" as="geometry"/>
                </mxCell>
                <mxCell id="3" value="前端" style="swimlane;startSize=20;" vertex="1" parent="2">
                    <mxGeometry y="20" width="425" height="1090" as="geometry"/>
                </mxCell>
                <mxCell id="7" value="问卷推送消息" style="whiteSpace=wrap;html=1;" vertex="1" parent="3">
                    <mxGeometry x="105" y="60" width="120" height="60" as="geometry"/>
                </mxCell>
                <mxCell id="24" value="" style="edgeStyle=none;html=1;" edge="1" parent="3" source="16" target="23">
                    <mxGeometry relative="1" as="geometry"/>
                </mxCell>
                <mxCell id="16" value="发送问卷聊天消息" style="whiteSpace=wrap;html=1;" vertex="1" parent="3">
                    <mxGeometry x="105" y="185" width="120" height="60" as="geometry"/>
                </mxCell>
                <mxCell id="23" value="点击聊天问卷" style="whiteSpace=wrap;html=1;" vertex="1" parent="3">
                    <mxGeometry x="105" y="570" width="120" height="60" as="geometry"/>
                </mxCell>
                <mxCell id="33" value="提示已提交" style="whiteSpace=wrap;html=1;" vertex="1" parent="3">
                    <mxGeometry x="105" y="830" width="120" height="60" as="geometry"/>
                </mxCell>
                <mxCell id="4" value="问卷sdk" style="swimlane;startSize=20;" vertex="1" parent="2">
                    <mxGeometry x="425" y="20" width="410" height="1090" as="geometry"/>
                </mxCell>
                <mxCell id="19" value="" style="edgeStyle=none;html=1;" edge="1" parent="4" source="8" target="18">
                    <mxGeometry relative="1" as="geometry"/>
                </mxCell>
                <mxCell id="8" value="显示问卷" style="whiteSpace=wrap;html=1;" vertex="1" parent="4">
                    <mxGeometry x="135" y="185" width="120" height="60" as="geometry"/>
                </mxCell>
                <mxCell id="18" value="填写问卷" style="whiteSpace=wrap;html=1;" vertex="1" parent="4">
                    <mxGeometry x="135" y="330" width="120" height="60" as="geometry"/>
                </mxCell>
                <mxCell id="31" value="显示问卷" style="whiteSpace=wrap;html=1;" vertex="1" parent="4">
                    <mxGeometry x="135" y="695" width="120" height="60" as="geometry"/>
                </mxCell>
                <mxCell id="5" value="后端" style="swimlane;startSize=20;" vertex="1" parent="2">
                    <mxGeometry x="835" y="20" width="300" height="1090" as="geometry"/>
                </mxCell>
                <mxCell id="13" value="" style="edgeStyle=none;html=1;" edge="1" parent="5" source="10" target="12">
                    <mxGeometry relative="1" as="geometry"/>
                </mxCell>
                <mxCell id="10" value="问卷填写状态" style="whiteSpace=wrap;html=1;" vertex="1" parent="5">
                    <mxGeometry x="105" y="60" width="120" height="60" as="geometry"/>
                </mxCell>
                <mxCell id="12" value="是否已提交" style="html=1;whiteSpace=wrap;aspect=fixed;shape=isoRectangle;" vertex="1" parent="5">
                    <mxGeometry x="90" y="170" width="150" height="90" as="geometry"/>
                </mxCell>
                <mxCell id="20" value="提交问卷" style="whiteSpace=wrap;html=1;" vertex="1" parent="5">
                    <mxGeometry x="105" y="330" width="120" height="60" as="geometry"/>
                </mxCell>
                <mxCell id="30" value="" style="edgeStyle=none;html=1;" edge="1" parent="5" source="26" target="29">
                    <mxGeometry relative="1" as="geometry"/>
                </mxCell>
                <mxCell id="26" value="问卷填写状态" style="whiteSpace=wrap;html=1;" vertex="1" parent="5">
                    <mxGeometry x="105" y="570" width="120" height="60" as="geometry"/>
                </mxCell>
                <mxCell id="29" value="是否已提交" style="html=1;whiteSpace=wrap;aspect=fixed;shape=isoRectangle;" vertex="1" parent="5">
                    <mxGeometry x="90" y="680" width="150" height="90" as="geometry"/>
                </mxCell>
                <mxCell id="11" value="" style="edgeStyle=none;html=1;" edge="1" parent="2" source="7" target="10">
                    <mxGeometry relative="1" as="geometry"/>
                </mxCell>
                <mxCell id="17" value="" style="edgeStyle=none;html=1;" edge="1" parent="2" source="8" target="16">
                    <mxGeometry relative="1" as="geometry"/>
                </mxCell>
                <mxCell id="21" value="" style="edgeStyle=none;html=1;" edge="1" parent="2" source="18" target="20">
                    <mxGeometry relative="1" as="geometry"/>
                </mxCell>
                <mxCell id="22" value="提交" style="edgeLabel;html=1;align=center;verticalAlign=middle;resizable=0;points=[];" vertex="1" connectable="0" parent="21">
                    <mxGeometry x="-0.0558" y="1" relative="1" as="geometry">
                        <mxPoint as="offset"/>
                    </mxGeometry>
                </mxCell>
                <mxCell id="27" value="" style="edgeStyle=none;html=1;" edge="1" parent="2" source="23" target="26">
                    <mxGeometry relative="1" as="geometry"/>
                </mxCell>
                <mxCell id="32" value="否" style="edgeStyle=none;html=1;" edge="1" parent="2" source="29" target="31">
                    <mxGeometry relative="1" as="geometry"/>
                </mxCell>
                <mxCell id="34" value="" style="edgeStyle=none;html=1;" edge="1" parent="2" source="29" target="33">
                    <mxGeometry relative="1" as="geometry">
                        <Array as="points">
                            <mxPoint x="1000" y="880"/>
                        </Array>
                    </mxGeometry>
                </mxCell>
                <mxCell id="35" value="是" style="edgeLabel;html=1;align=center;verticalAlign=middle;resizable=0;points=[];" vertex="1" connectable="0" parent="34">
                    <mxGeometry x="0.0266" y="2" relative="1" as="geometry">
                        <mxPoint as="offset"/>
                    </mxGeometry>
                </mxCell>
                <mxCell id="14" value="" style="endArrow=classic;html=1;exitX=0;exitY=0.5;exitDx=0;exitDy=0;exitPerimeter=0;" edge="1" parent="1" source="12">
                    <mxGeometry relative="1" as="geometry">
                        <mxPoint x="700" y="560" as="sourcePoint"/>
                        <mxPoint x="920" y="405" as="targetPoint"/>
                    </mxGeometry>
                </mxCell>
                <mxCell id="15" value="否" style="edgeLabel;resizable=0;html=1;align=center;verticalAlign=middle;" connectable="0" vertex="1" parent="14">
                    <mxGeometry relative="1" as="geometry"/>
                </mxCell>
            </root>
        </mxGraphModel>
    </diagram>
</mxfile>